#N canvas 312 22 711 533 10;
#X obj 17 29 st2ten.player;
#X obj 19 131 mixer.vumeter;
#X obj 17 67 st2ten.demixer~ -----------------;
#X obj 17 103 st2ten.router~ ------------------;
#X obj 299 509 dac~ 1 2 3 4 5 6 7 8 9 10;
#X connect 0 0 2 0;
#X connect 0 1 2 1;
#X connect 1 0 4 0;
#X connect 1 1 4 1;
#X connect 1 2 4 2;
#X connect 1 3 4 3;
#X connect 1 4 4 4;
#X connect 1 5 4 5;
#X connect 1 6 4 6;
#X connect 1 7 4 7;
#X connect 1 8 4 8;
#X connect 1 9 4 9;
#X connect 2 0 3 0;
#X connect 2 1 3 1;
#X connect 2 2 3 2;
#X connect 2 3 3 3;
#X connect 2 4 3 4;
#X connect 2 5 3 5;
#X connect 2 6 3 6;
#X connect 2 7 3 7;
#X connect 2 8 3 8;
#X connect 2 9 3 9;
#X connect 3 0 1 0;
#X connect 3 1 1 1;
#X connect 3 2 1 2;
#X connect 3 3 1 3;
#X connect 3 4 1 4;
#X connect 3 5 1 5;
#X connect 3 6 1 6;
#X connect 3 7 1 7;
#X connect 3 8 1 8;
#X connect 3 9 1 9;
