#N canvas 67 180 1259 589 10;
#X obj -61 16 inlet~;
#X obj -56 106 vu 15 120 empty empty -1 -8 0 10 -66577 -1 1 0;
#X obj -4 16 inlet~;
#X obj 1 106 vu 15 120 empty empty -1 -8 0 10 -66577 -1 1 0;
#X obj 53 17 inlet~;
#X obj 58 107 vu 15 120 empty empty -1 -8 0 10 -66577 -1 1 0;
#X obj 110 17 inlet~;
#X obj 115 107 vu 15 120 empty empty -1 -8 0 10 -66577 -1 1 0;
#X obj 168 18 inlet~;
#X obj 173 108 vu 15 120 empty empty -1 -8 0 10 -66577 -1 1 0;
#X obj 225 18 inlet~;
#X obj 230 108 vu 15 120 empty empty -1 -8 0 10 -66577 -1 1 0;
#X obj 282 19 inlet~;
#X obj 287 109 vu 15 120 empty empty -1 -8 0 10 -66577 -1 1 0;
#X obj 339 19 inlet~;
#X obj 344 109 vu 15 120 empty empty -1 -8 0 10 -66577 -1 1 0;
#X obj 394 19 inlet~;
#X obj 399 109 vu 15 120 empty empty -1 -8 0 10 -66577 -1 1 0;
#X obj 451 19 inlet~;
#X obj 456 109 vu 15 120 empty empty -1 -8 0 10 -66577 -1 1 0;
#X obj -56 256 vsl 15 128 0 1 0 0 empty empty empty 0 -9 0 10 -262144
-1 -1 12700 1;
#X text -54 233 L;
#X obj 1 256 vsl 15 128 0 1 0 0 empty empty empty 0 -9 0 10 -262144
-1 -1 12700 1;
#X obj 59 255 vsl 15 128 0 1 0 0 empty empty empty 0 -9 0 10 -262144
-1 -1 12700 1;
#X obj 116 255 vsl 15 128 0 1 0 0 empty empty empty 0 -9 0 10 -262144
-1 -1 12700 1;
#X obj 174 255 vsl 15 128 0 1 0 0 empty empty empty 0 -9 0 10 -262144
-1 -1 12700 1;
#X obj 231 255 vsl 15 128 0 1 0 0 empty empty empty 0 -9 0 10 -262144
-1 -1 12700 1;
#X obj 290 254 vsl 15 128 0 1 0 0 empty empty empty 0 -9 0 10 -262144
-1 -1 12700 1;
#X obj 347 254 vsl 15 128 0 1 0 0 empty empty empty 0 -9 0 10 -262144
-1 -1 12700 1;
#X obj 401 255 vsl 15 128 0 1 0 0 empty empty empty 0 -9 0 10 -262144
-1 -1 12700 1;
#X obj 458 255 vsl 15 128 0 1 0 0 empty empty empty 0 -9 0 10 -262144
-1 -1 12700 1;
#X text 3 233 R;
#X text 59 232 Ld;
#X text 116 232 Rd;
#X text 173 232 LS;
#X text 230 232 RS;
#X text 287 231 LSd;
#X text 344 231 RSd;
#X text 400 232 C;
#X text 456 232 CSd;
#X text 480 305 Y;
#X text 480 315 P;
#X text 480 325 A;
#X text 480 336 S;
#X text 480 346 S;
#X obj 526 85 spigot~;
#X obj 574 85 spigot~;
#X obj 622 85 spigot~;
#X obj 670 85 spigot~;
#X obj 718 85 spigot~;
#X obj 766 85 spigot~;
#X obj 814 85 spigot~;
#X obj 862 85 spigot~;
#X obj 910 85 spigot~;
#X obj 958 85 spigot~;
#X obj 526 135 st2ten.ampControl~ --------------------------------------
;
#X text 480 295 B;
#X obj 481 279 tgl 15 0 empty empty empty 17 7 0 10 -262144 -1 -1 0
1;
#X obj 284 514 pvu~;
#X obj 315 514 pvu~;
#X obj 348 515 pvu~;
#X obj 379 515 pvu~;
#X obj 410 515 pvu~;
#X obj 441 515 pvu~;
#X obj 474 516 pvu~;
#X obj 505 516 pvu~;
#X obj 535 516 pvu~;
#X obj 566 516 pvu~;
#X obj 526 422 outlet~;
#X obj 574 423 outlet~;
#X obj 623 424 outlet~;
#X obj 671 425 outlet~;
#X obj 720 421 outlet~;
#X obj 768 422 outlet~;
#X obj 817 423 outlet~;
#X obj 865 424 outlet~;
#X obj 915 421 outlet~;
#X obj 963 422 outlet~;
#X msg 1025 208 t_metro 30;
#X obj 1024 182 loadbang;
#X connect 0 0 45 0;
#X connect 2 0 46 0;
#X connect 4 0 47 0;
#X connect 6 0 48 0;
#X connect 8 0 49 0;
#X connect 10 0 50 0;
#X connect 12 0 51 0;
#X connect 14 0 52 0;
#X connect 16 0 53 0;
#X connect 18 0 54 0;
#X connect 20 0 55 1;
#X connect 22 0 55 3;
#X connect 23 0 55 5;
#X connect 24 0 55 7;
#X connect 25 0 55 9;
#X connect 26 0 55 11;
#X connect 27 0 55 13;
#X connect 28 0 55 15;
#X connect 29 0 55 17;
#X connect 30 0 55 19;
#X connect 45 0 55 0;
#X connect 45 1 58 0;
#X connect 46 0 55 2;
#X connect 46 1 59 0;
#X connect 47 0 55 4;
#X connect 47 1 60 0;
#X connect 48 0 55 6;
#X connect 48 1 61 0;
#X connect 49 0 55 8;
#X connect 49 1 62 0;
#X connect 50 0 55 10;
#X connect 50 1 63 0;
#X connect 51 0 55 12;
#X connect 51 1 65 0;
#X connect 51 1 64 0;
#X connect 52 0 55 14;
#X connect 52 1 65 0;
#X connect 53 0 55 16;
#X connect 53 1 66 0;
#X connect 54 0 55 18;
#X connect 54 1 67 0;
#X connect 55 0 58 0;
#X connect 55 0 68 0;
#X connect 55 1 59 0;
#X connect 55 1 69 0;
#X connect 55 2 60 0;
#X connect 55 2 70 0;
#X connect 55 3 61 0;
#X connect 55 3 71 0;
#X connect 55 4 62 0;
#X connect 55 4 72 0;
#X connect 55 5 63 0;
#X connect 55 5 73 0;
#X connect 55 6 64 0;
#X connect 55 6 74 0;
#X connect 55 7 65 0;
#X connect 55 7 75 0;
#X connect 55 8 76 0;
#X connect 55 8 66 0;
#X connect 55 9 77 0;
#X connect 55 9 67 0;
#X connect 57 0 45 1;
#X connect 57 0 46 1;
#X connect 57 0 47 1;
#X connect 57 0 48 1;
#X connect 57 0 49 1;
#X connect 57 0 50 1;
#X connect 57 0 51 1;
#X connect 57 0 52 1;
#X connect 57 0 53 1;
#X connect 57 0 54 1;
#X connect 58 0 1 0;
#X connect 59 0 3 0;
#X connect 60 0 5 0;
#X connect 61 0 7 0;
#X connect 62 0 9 0;
#X connect 63 0 11 0;
#X connect 64 0 13 0;
#X connect 65 0 15 0;
#X connect 66 0 17 0;
#X connect 67 0 19 0;
#X connect 78 0 58 0;
#X connect 78 0 59 0;
#X connect 78 0 60 0;
#X connect 78 0 61 0;
#X connect 78 0 62 0;
#X connect 78 0 63 0;
#X connect 78 0 64 0;
#X connect 78 0 65 0;
#X connect 78 0 66 0;
#X connect 78 0 67 0;
#X connect 79 0 78 0;
#X coords 0 -1 1 1 570 310 1 -64 85;
