#N canvas 238 575 956 299 10;
#X obj 17 185 outlet;
#X obj 162 186 outlet;
#X obj 89 187 outlet;
#X obj 223 188 outlet;
#X obj 298 185 outlet;
#X obj 371 186 outlet;
#X obj 455 187 outlet;
#X obj 533 188 outlet;
#X obj 608 187 outlet;
#X obj 686 188 outlet;
#X obj 17 149 receive LC;
#X obj 370 149 receive RSC;
#X obj 296 149 receive LSC;
#X obj 223 149 receive RdC;
#X obj 84 149 receive RC;
#X obj 151 149 receive LdC;
#X obj 456 149 receive LSdC;
#X obj 546 149 receive RSdC;
#X obj 637 149 receive CC;
#X obj 716 149 receive CSdC;
#X connect 10 0 0 0;
#X connect 11 0 5 0;
#X connect 12 0 4 0;
#X connect 13 0 3 0;
#X connect 14 0 2 0;
#X connect 15 0 1 0;
#X connect 16 0 6 0;
#X connect 17 0 7 0;
#X connect 18 0 8 0;
#X connect 19 0 9 0;
