#N canvas 0 22 752 198 10;
#X obj 477 6 \$1;
#X obj 477 -18 loadbang;
#X floatatom 477 29 5 0 0 0 - - -;
#X obj 21 149 send LC;
#X obj 121 149 send LdC;
#X obj 69 149 send RC;
#X obj 178 149 send RdC;
#X obj 234 148 send LSC;
#X obj 290 148 send RSC;
#X obj 344 147 send LSdC;
#X obj 408 149 send RSdC;
#X obj 469 149 send CC;
#X obj 548 149 send CSdC;
#X obj 21 53 inlet;
#X obj 21 85 *;
#X obj 69 55 inlet;
#X obj 69 87 *;
#X obj 122 56 inlet;
#X obj 122 88 *;
#X obj 170 58 inlet;
#X obj 170 90 *;
#X obj 210 58 inlet;
#X obj 210 90 *;
#X obj 258 60 inlet;
#X obj 258 92 *;
#X obj 311 61 inlet;
#X obj 311 93 *;
#X obj 359 63 inlet;
#X obj 359 95 *;
#X obj 399 64 inlet;
#X obj 399 96 *;
#X obj 447 66 inlet;
#X obj 447 98 *;
#X connect 0 0 2 0;
#X connect 0 0 14 1;
#X connect 0 0 16 1;
#X connect 0 0 18 1;
#X connect 0 0 20 1;
#X connect 0 0 22 1;
#X connect 0 0 24 1;
#X connect 0 0 26 1;
#X connect 0 0 28 1;
#X connect 0 0 30 1;
#X connect 0 0 32 1;
#X connect 1 0 0 0;
#X connect 13 0 14 0;
#X connect 14 0 3 0;
#X connect 15 0 16 0;
#X connect 16 0 5 0;
#X connect 17 0 18 0;
#X connect 18 0 4 0;
#X connect 19 0 20 0;
#X connect 20 0 6 0;
#X connect 21 0 22 0;
#X connect 22 0 7 0;
#X connect 23 0 24 0;
#X connect 24 0 8 0;
#X connect 25 0 26 0;
#X connect 26 0 9 0;
#X connect 27 0 28 0;
#X connect 28 0 10 0;
#X connect 29 0 30 0;
#X connect 30 0 11 0;
#X connect 31 0 32 0;
#X connect 32 0 12 0;
