#N canvas 566 394 874 506 10;
#X obj 29 345 outlet~ \$0-L;
#X obj 105 380 outlet~ \$0-Ls;
#X obj 66 362 outlet~ \$0-Ld;
#X obj 29 30 inlet~ left;
#X obj 457 153 +~;
#X obj 457 121 *~ 0.5;
#X obj 500 121 *~ 0.5;
#X obj 459 316 outlet~ \$0-C;
#X obj 223 29 inlet~ right;
#X obj 144 402 outlet~ \$0-Lsd;
#X obj 223 344 outlet~ \$0-R;
#X obj 260 361 outlet~ \$0-Rd;
#X obj 299 379 outlet~ \$0-Rs;
#X obj 336 396 outlet~ \$0-Rsd;
#X obj 487 333 outlet~ \$0-Csd;
#X connect 3 0 1 0;
#X connect 3 0 0 0;
#X connect 3 0 2 0;
#X connect 3 0 5 0;
#X connect 3 0 9 0;
#X connect 4 0 7 0;
#X connect 4 0 14 0;
#X connect 5 0 4 0;
#X connect 6 0 4 1;
#X connect 8 0 6 0;
#X connect 8 0 10 0;
#X connect 8 0 11 0;
#X connect 8 0 12 0;
#X connect 8 0 13 0;
