#N canvas 44 59 1396 578 10;
#X obj 15 34 inlet~ \$0-L;
#X obj 152 33 inlet~ \$0-R;
#X obj 30 109 control.function;
#X obj 15 140 *~;
#X text 30 61 inlet for amount of control;
#X text 13 14 inlet for signal to control;
#X obj 15 345 outlet~ \$0-L;
#X obj 87 34 inlet;
#X obj 225 33 inlet;
#X obj 167 100 control.function;
#X obj 152 131 *~;
#X obj 152 344 outlet~ \$0-R;
#X obj 301 109 control.function;
#X obj 286 140 *~;
#X obj 368 34 inlet;
#X obj 504 33 inlet;
#X obj 438 100 control.function;
#X obj 423 131 *~;
#X obj 571 108 control.function;
#X obj 556 139 *~;
#X obj 636 33 inlet;
#X obj 775 32 inlet;
#X obj 708 99 control.function;
#X obj 693 130 *~;
#X obj 836 104 control.function;
#X obj 821 135 *~;
#X obj 907 28 inlet;
#X obj 1046 28 inlet;
#X obj 973 95 control.function;
#X obj 958 126 *~;
#X obj 1101 102 control.function;
#X obj 1086 133 *~;
#X obj 1158 27 inlet;
#X obj 1313 26 inlet;
#X obj 1238 93 control.function;
#X obj 1223 124 *~;
#X obj 286 34 inlet~ \$0-Ld;
#X obj 423 33 inlet~ \$0-Rd;
#X obj 556 33 inlet~ \$0-Ls;
#X obj 693 32 inlet~ \$0-Rs;
#X obj 821 29 inlet~ \$0-Lsd;
#X obj 958 28 inlet~ \$0-Rsd;
#X obj 1086 26 inlet~ \$0-C;
#X obj 1223 26 inlet~ \$0-Csd;
#X obj 286 345 outlet~ \$0-Ld;
#X obj 423 344 outlet~ \$0-Rd;
#X obj 556 344 outlet~ \$0-Ls;
#X obj 693 343 outlet~ \$0-Rs;
#X obj 821 340 outlet~ \$0-Lsd;
#X obj 958 339 outlet~ \$0-Rsd;
#X obj 1086 338 outlet~ \$0-C;
#X obj 1223 337 outlet~ \$0-Csd;
#X connect 0 0 3 0;
#X connect 1 0 10 0;
#X connect 2 0 3 1;
#X connect 3 0 6 0;
#X connect 7 0 2 0;
#X connect 8 0 9 0;
#X connect 9 0 10 1;
#X connect 10 0 11 0;
#X connect 12 0 13 1;
#X connect 13 0 44 0;
#X connect 14 0 12 0;
#X connect 15 0 16 0;
#X connect 16 0 17 1;
#X connect 17 0 45 0;
#X connect 18 0 19 1;
#X connect 19 0 46 0;
#X connect 20 0 18 0;
#X connect 21 0 22 0;
#X connect 22 0 23 1;
#X connect 23 0 47 0;
#X connect 24 0 25 1;
#X connect 25 0 48 0;
#X connect 26 0 24 0;
#X connect 27 0 28 0;
#X connect 28 0 29 1;
#X connect 29 0 49 0;
#X connect 30 0 31 1;
#X connect 31 0 50 0;
#X connect 32 0 30 0;
#X connect 33 0 34 0;
#X connect 34 0 35 1;
#X connect 35 0 51 0;
#X connect 36 0 13 0;
#X connect 37 0 17 0;
#X connect 38 0 19 0;
#X connect 39 0 23 0;
#X connect 40 0 25 0;
#X connect 41 0 29 0;
#X connect 42 0 31 0;
#X connect 43 0 35 0;
