#N canvas 633 204 780 388 10;
#X obj 25 214 outlet~ L;
#X obj 85 214 outlet~ R;
#X obj 157 214 outlet~ Ld;
#X obj 223 214 outlet~ Rd;
#X obj 301 214 outlet~ Ls;
#X obj 367 214 outlet~ Rs;
#X obj 448 213 outlet~ Lsd;
#X obj 521 213 outlet~ Rsd;
#X obj 604 213 outlet~ C;
#X obj 670 213 outlet~ Cd;
#X obj 24 55 inlet~ L;
#X obj 79 55 inlet~ Ld;
#X obj 142 55 inlet~ Ls;
#X obj 203 55 inlet~ Lsd;
#X obj 289 53 inlet~ R;
#X obj 344 53 inlet~ Rd;
#X obj 407 53 inlet~ Rs;
#X obj 468 53 inlet~ Rsd;
#X obj 554 54 inlet~ C;
#X obj 615 54 inlet~ Csd;
#X connect 10 0 0 0;
#X connect 11 0 2 0;
#X connect 12 0 4 0;
#X connect 13 0 6 0;
#X connect 14 0 1 0;
#X connect 15 0 3 0;
#X connect 16 0 5 0;
#X connect 17 0 7 0;
#X connect 18 0 8 0;
#X connect 19 0 9 0;
