#N canvas 189 105 791 570 10;
#X obj 0 41 inlet~ L;
#X obj 79 41 inlet~ R;
#X obj 155 41 inlet~ Ls;
#X obj 234 41 inlet~ Rs;
#X obj 311 41 inlet~ C;
#X obj 0 196 writesf~ 5;
#X msg 381 66 open -bytes 4 -rate 48000 -wave /tmp/arquivo_5.1.wav
;
#N canvas 531 105 841 428 arguments 0;
#X obj 16 17 loadbang;
#X obj 16 76 \$1;
#X obj 378 72 \$2;
#X text 37 73 -bytes argument;
#X obj 16 96 expr if($f1==0 || $f1==16 \, 2 \, if($f1==24 \, 3 \, if($f1==32
\, 4 \, 2)));
#X obj 378 96 expr if($f1==0 \, 44100 \, $f1);
#X text 403 74 -rate (sample rate);
#X msg 616 202 symbol /tmp/arquivo_5.1.wav;
#X msg 443 202 symbol /Users/teste.wav;
#X obj 16 38 t b b b;
#X obj 16 264 pack f f s;
#X msg 16 289 set open -bytes \$1 -rate \$2 -wave \$3;
#X obj 17 318 outlet;
#X connect 0 0 9 0;
#X connect 1 0 4 0;
#X connect 2 0 5 0;
#X connect 4 0 10 0;
#X connect 5 0 10 1;
#X connect 7 0 10 2;
#X connect 8 0 10 2;
#X connect 9 0 1 0;
#X connect 9 1 2 0;
#X connect 9 2 7 0;
#X connect 10 0 11 0;
#X connect 11 0 12 0;
#X restore 381 42 pd arguments;
#X obj 5 17 bng 10 250 50 0 empty empty create_file 13 5 0 10 -257985
-4034 -1;
#X obj 87 17 bng 10 250 50 0 empty empty record 13 5 0 10 -258113 -257985
-1;
#X msg 157 143 start;
#X obj 143 17 bng 10 250 50 0 empty empty stop_record 13 5 0 10 -257985
-4034 -1;
#X msg 241 145 stop;
#X msg 199 144 print;
#X obj 200 110 t b b;
#X obj 50 258 outlet~;
#X obj 101 259 outlet~;
#X obj 156 259 outlet~;
#X obj 207 260 outlet~;
#X obj 259 258 outlet~;
#X connect 0 0 5 0;
#X connect 0 0 15 0;
#X connect 1 0 5 1;
#X connect 1 0 16 0;
#X connect 2 0 5 2;
#X connect 2 0 17 0;
#X connect 3 0 5 3;
#X connect 3 0 18 0;
#X connect 4 0 5 4;
#X connect 4 0 19 0;
#X connect 6 0 5 0;
#X connect 7 0 6 0;
#X connect 8 0 6 0;
#X connect 9 0 10 0;
#X connect 10 0 5 0;
#X connect 11 0 14 0;
#X connect 12 0 5 0;
#X connect 13 0 5 0;
#X connect 14 0 13 0;
#X connect 14 1 12 0;
#X coords 0 -1 1 1 225 30 1 0 0;
