#N canvas 802 340 447 453 10;
#X text 17 22 *;
#X text 17 32 *;
#X text 17 43 *;
#X text 17 53 *;
#X text 263 12 *;
#X text 11 12 /*******************************************;
#X text 11 81 /*******************************************;
#X text 15 113 k -> uma constante \, dependente da escala a ser usada
\;;
#X text 33 67 do professor Mannis \, J.A.;
#X text 17 62 *;
#X text 17 72 *;
#X obj 23 190 inlet;
#X obj 23 344 outlet;
#X obj 247 172 expr if($f1==0 \, 127 \, $f1);
#X obj 236 150 \$1;
#X obj 236 129 loadbang;
#X text 260 151 escolhe k=127 como default;
#X text 14 97 domínio (lim x->-*inf);
#X text 44 127 aqui \, k = 127 (valores MIDI);
#X obj 23 276 verifica.trunca;
#X obj 248 193 t f f;
#X text 13 410 Guilherme Lunhani - gcravista@gmail.com \, twitter:@_ovarc
;
#X text 130 425 (inserir objetos para enviarem um email e twitarem)
;
#X text 32 54 f(x) = ((e(e-1))^x/k)-1/e(e-1)-1;
#X text 33 27 referencia de valor para pegar o menor valor possivel
\, baseada na função:;
#X obj 205 172 bng 15 250 50 0 empty empty empty 17 7 0 10 -262144
-1 -1;
#X floatatom 83 319 5 0 0 0 - - -;
#X obj 23 217 expr pow(exp(1)*(exp(1)-1) \, $f1/$f2)-1;
#X obj 23 243 expr $f1/((exp(1)*(exp(1)-1))-1);
#X connect 11 0 27 0;
#X connect 13 0 20 0;
#X connect 14 0 13 0;
#X connect 15 0 14 0;
#X connect 19 0 12 0;
#X connect 19 0 26 0;
#X connect 20 0 27 1;
#X connect 20 1 19 1;
#X connect 25 0 14 0;
#X connect 27 0 28 0;
#X connect 28 0 19 0;
