#N canvas 561 145 343 130 10;
#X obj 154 16 control.function.reference;
#X text 166 62 I(dB) = 10*log(I/I0);
#X obj 13 64 expr 10 * log10($f1)/$f2;
#X obj 13 35 env~;
#X obj 13 88 outlet;
#X obj 13 13 inlet~;
#X connect 0 0 2 1;
#X connect 2 0 4 0;
#X connect 3 0 2 0;
#X connect 5 0 3 0;
