#N canvas 146 121 701 323 10;
#X obj 16 30 inlet~;
#X obj 16 67 spigot~;
#X obj 69 29 inlet~;
#X obj 69 66 spigot~;
#X obj 124 29 inlet~;
#X obj 124 66 spigot~;
#X obj 177 28 inlet~;
#X obj 177 65 spigot~;
#X obj 232 27 inlet~;
#X obj 232 64 spigot~;
#X obj 292 187 outlet~;
#X obj 345 186 outlet~;
#X obj 400 186 outlet~;
#X obj 453 185 outlet~;
#X obj 508 184 outlet~;
#X obj 536 23 inlet toogle;
#X obj 18 145 stereo2five.ampControl~ 127;
#X obj 19 189 outlet~;
#X obj 72 188 outlet~;
#X obj 127 188 outlet~;
#X obj 180 187 outlet~;
#X obj 235 186 outlet~;
#X obj 278 26 inlet;
#X obj 331 25 inlet;
#X obj 386 25 inlet;
#X obj 439 24 inlet;
#X obj 494 23 inlet;
#X connect 0 0 1 0;
#X connect 1 0 16 0;
#X connect 1 1 10 0;
#X connect 2 0 3 0;
#X connect 3 0 16 2;
#X connect 3 1 11 0;
#X connect 4 0 5 0;
#X connect 5 0 16 4;
#X connect 5 1 12 0;
#X connect 6 0 7 0;
#X connect 7 0 16 6;
#X connect 7 1 13 0;
#X connect 8 0 9 0;
#X connect 9 0 16 8;
#X connect 9 1 14 0;
#X connect 15 0 1 1;
#X connect 15 0 3 1;
#X connect 15 0 5 1;
#X connect 15 0 7 1;
#X connect 15 0 9 1;
#X connect 16 0 17 0;
#X connect 16 1 18 0;
#X connect 16 2 19 0;
#X connect 16 3 20 0;
#X connect 16 4 21 0;
#X connect 22 0 16 1;
#X connect 23 0 16 3;
#X connect 24 0 16 5;
#X connect 25 0 16 7;
#X connect 26 0 16 9;
