#N canvas 67 179 803 604 10;
#X obj 300 83 inlet~;
#X obj -58 118 vu 15 120 empty empty -1 -8 0 10 -66577 -1 1 0;
#X obj 343 83 inlet~;
#X obj -1 118 vu 15 120 empty empty -1 -8 0 10 -66577 -1 1 0;
#X obj 386 83 inlet~;
#X obj 56 119 vu 15 120 empty empty -1 -8 0 10 -66577 -1 1 0;
#X obj 429 83 inlet~;
#X obj 113 119 vu 15 120 empty empty -1 -8 0 10 -66577 -1 1 0;
#X obj 472 83 inlet~;
#X obj 171 120 vu 15 120 empty empty -1 -8 0 10 -66577 -1 1 0;
#X obj -58 268 vsl 15 128 0 1 0 0 empty empty empty 0 -9 0 10 -262144
-1 -1 0 1;
#X text -56 245 L;
#X obj -1 268 vsl 15 128 0 1 0 0 empty empty empty 0 -9 0 10 -262144
-1 -1 0 1;
#X obj 57 267 vsl 15 128 0 1 0 0 empty empty empty 0 -9 0 10 -262144
-1 -1 12700 1;
#X obj 114 267 vsl 15 128 0 1 0 0 empty empty empty 0 -9 0 10 -262144
-1 -1 0 1;
#X obj 172 267 vsl 15 128 0 1 0 0 empty empty empty 0 -9 0 10 -262144
-1 -1 0 1;
#X text 1 245 R;
#X text 206 298 Y;
#X text 206 308 P;
#X text 206 318 A;
#X text 206 329 S;
#X text 206 339 S;
#X text 206 288 B;
#X obj 204 265 tgl 15 0 empty empty empty 17 7 0 10 -262144 -1 -1 1
1;
#X obj 291 236 pvu~;
#X obj 322 236 pvu~;
#X obj 355 237 pvu~;
#X obj 386 237 pvu~;
#X obj 450 292 outlet~;
#X obj 498 292 outlet~;
#X obj 546 292 outlet~;
#X obj 594 292 outlet~;
#X obj 642 292 outlet~;
#X msg -57 45 t_metro 30;
#X obj -57 25 loadbang;
#X text 57 244 Ls;
#X text 114 244 Rs;
#X text 171 244 C;
#X obj 419 237 pvu~;
#X obj 301 115 five.mixer.bypass -----------------;
#X obj 272 316 == 0;
#X obj 272 336 sel 1;
#X text 313 327 para atualizar os dados!;
#X obj -56 472 s \$1-Lc;
#X obj -7 471 s \$1-Rc;
#X obj 42 472 s \$1-Lsc;
#X obj 101 472 s \$1-Rsc;
#X obj 158 472 s \$1-Cc;
#X obj 510 164;
#X connect 0 0 39 0;
#X connect 2 0 39 1;
#X connect 4 0 39 2;
#X connect 6 0 39 3;
#X connect 8 0 39 4;
#X connect 10 0 39 5;
#X connect 12 0 39 6;
#X connect 13 0 39 7;
#X connect 14 0 39 8;
#X connect 15 0 39 9;
#X connect 23 0 39 10;
#X connect 23 0 40 0;
#X connect 24 0 1 0;
#X connect 25 0 3 0;
#X connect 26 0 5 0;
#X connect 27 0 7 0;
#X connect 33 0 24 0;
#X connect 33 0 25 0;
#X connect 33 0 26 0;
#X connect 33 0 27 0;
#X connect 33 0 38 0;
#X connect 34 0 33 0;
#X connect 38 0 9 0;
#X connect 39 0 24 0;
#X connect 39 0 28 0;
#X connect 39 1 25 0;
#X connect 39 1 29 0;
#X connect 39 2 26 0;
#X connect 39 2 30 0;
#X connect 39 3 27 0;
#X connect 39 3 31 0;
#X connect 39 4 38 0;
#X connect 39 4 32 0;
#X connect 39 5 24 0;
#X connect 39 5 28 0;
#X connect 39 6 25 0;
#X connect 39 6 29 0;
#X connect 39 7 26 0;
#X connect 39 7 30 0;
#X connect 39 8 27 0;
#X connect 39 8 31 0;
#X connect 39 9 38 0;
#X connect 39 9 32 0;
#X connect 40 0 41 0;
#X connect 41 0 15 0;
#X connect 41 0 14 0;
#X connect 41 0 13 0;
#X connect 41 0 12 0;
#X connect 41 0 10 0;
#X coords 0 -1 1 1 300 310 1 -64 95;
