#N canvas 524 43 711 533 10;
#X obj 17 29 stereo.player;
#X obj 17 67 stereo2five.demixer~ -----------------;
#X obj 17 103 stereo2five.router~ ------------------;
#X obj 18 127 five.mixer;
#X obj 61 471 5.1.writer 32 48000;
#X connect 0 0 1 0;
#X connect 0 1 1 1;
#X connect 1 0 2 0;
#X connect 1 1 2 1;
#X connect 1 2 2 2;
#X connect 1 3 2 3;
#X connect 1 4 2 4;
#X connect 2 0 3 0;
#X connect 2 1 3 1;
#X connect 2 2 3 2;
#X connect 2 3 3 3;
#X connect 2 4 3 4;
#X connect 3 0 4 0;
#X connect 3 1 4 1;
#X connect 3 2 4 2;
#X connect 3 3 4 3;
#X connect 3 4 4 4;
