#N canvas 306 143 467 216 10;
#X obj 29 168 outlet~ \$0-L;
#X obj 109 168 outlet~ \$0-Ls;
#X obj 29 30 inlet~ left;
#X obj 359 143 +~;
#X obj 359 111 *~ 0.5;
#X obj 402 111 *~ 0.5;
#X obj 359 168 outlet~ \$0-C;
#X obj 194 30 inlet~ right;
#X obj 194 168 outlet~ \$0-R;
#X obj 274 168 outlet~ \$0-Rs;
#X connect 2 0 1 0;
#X connect 2 0 0 0;
#X connect 2 0 4 0;
#X connect 3 0 6 0;
#X connect 4 0 3 0;
#X connect 5 0 3 1;
#X connect 7 0 8 0;
#X connect 7 0 9 0;
#X connect 7 0 5 0;
