#N canvas 44 59 674 297 10;
#X obj 15 66 inlet~ \$0-L;
#X obj 15 196 *~;
#X text 13 14 inlet for signal to control;
#X obj 14 235 outlet~ \$0-L;
#X obj 87 66 inlet;
#X text 207 255 \$1-multiplica o fader \, que vai de 0..1;
#X obj 264 11 \$1;
#X obj 201 11 loadbang;
#X obj 295 10 expr if($f1==0 \, 127 \, $f1);
#X obj 30 142 *;
#X obj 148 195 *~;
#X obj 220 65 inlet;
#X obj 163 141 *;
#X obj 148 65 inlet~ \$0-R;
#X obj 147 234 outlet~ \$0-R;
#X obj 273 192 *~;
#X obj 355 62 inlet;
#X obj 288 138 *;
#X obj 406 191 *~;
#X obj 490 60 inlet;
#X obj 421 137 *;
#X obj 273 62 inlet~ \$0-Ls;
#X obj 406 60 inlet~ \$0-Rs;
#X obj 272 231 outlet~ \$0-Ls;
#X obj 405 230 outlet~ \$0-Rs;
#X obj 529 191 *~;
#X obj 613 60 inlet;
#X obj 544 137 *;
#X obj 529 60 inlet~ \$0-C;
#X obj 528 230 outlet~ \$0-C;
#X obj 30 165 control.function;
#X obj 163 164 control.function;
#X obj 288 161 control.function;
#X obj 421 160 control.function;
#X obj 544 160 control.function;
#X connect 0 0 1 0;
#X connect 1 0 3 0;
#X connect 4 0 9 0;
#X connect 6 0 8 0;
#X connect 7 0 6 0;
#X connect 8 0 9 1;
#X connect 8 0 12 1;
#X connect 8 0 17 1;
#X connect 8 0 20 1;
#X connect 8 0 27 1;
#X connect 9 0 30 0;
#X connect 10 0 14 0;
#X connect 11 0 12 0;
#X connect 12 0 31 0;
#X connect 13 0 10 0;
#X connect 15 0 23 0;
#X connect 16 0 17 0;
#X connect 17 0 32 0;
#X connect 18 0 24 0;
#X connect 19 0 20 0;
#X connect 20 0 33 0;
#X connect 21 0 15 0;
#X connect 22 0 18 0;
#X connect 25 0 29 0;
#X connect 26 0 27 0;
#X connect 27 0 34 0;
#X connect 28 0 25 0;
#X connect 30 0 1 1;
#X connect 31 0 10 1;
#X connect 32 0 15 1;
#X connect 33 0 18 1;
#X connect 34 0 25 1;
